<?xml version="1.0" encoding="utf-8"?>
<!-- Generator: Adobe Illustrator 22.0.0, SVG Export Plug-In . SVG Version: 6.00 Build 0)  -->
<svg version="1.1" xmlns="http://www.w3.org/2000/svg" xmlns:xlink="http://www.w3.org/1999/xlink" x="0px" y="0px"
	 viewBox="0 0 256 256" style="enable-background:new 0 0 256 256;" xml:space="preserve">
<style type="text/css">
	.st0{display:none;}
	.st1{display:inline;}
	.st2{fill:none;stroke:#6B1D1D;stroke-width:0.5;stroke-miterlimit:10;}
	.st3{fill:#3A312A;}
	.st4{fill:#87796F;}
	.st5{fill:#D5DE58;}
	.st6{fill:#695B51;}
	.st7{fill:#FCE8CB;}
	.st8{fill:#F16C7A;}
	.st9{fill:#8AC6DD;}
	.st10{fill:#DECAAD;}
	.st11{fill:#D6DF58;}
	.st12{fill-rule:evenodd;clip-rule:evenodd;fill:#FCE8CB;}
	.st13{fill:#F5978A;}
	.st14{fill:#D7E057;}
	.st15{fill-rule:evenodd;clip-rule:evenodd;fill:#87796F;}
	.st16{fill:#6CA8BF;}
	.st17{fill:#B9C239;}
	.st18{fill:#D34E5C;}
	.st19{fill:#FAE6CA;}
	.st20{fill:#F8E4C8;}
	.st21{fill:#8AC5DC;}
	.st22{fill:#EF6D7A;}
	.st23{fill:#EB6E7A;}
	.st24{fill:#89C4DB;}
	.st25{fill-rule:evenodd;clip-rule:evenodd;fill:#F16C7A;}
	.st26{fill:#F7E3C7;}
	.st27{fill:#F6E2C6;}
	.st28{fill:#ED6E7A;}
	.st29{fill:#8AC3DA;}
	.st30{fill:#D5DC57;}
	.st31{fill-rule:evenodd;clip-rule:evenodd;fill:#D7E057;}
	.st32{fill-rule:evenodd;clip-rule:evenodd;fill:#F8E4C8;}
	.st33{fill:#D4DB56;}
	.st34{fill:#F59689;}
	.st35{fill:#DDC9AC;}
	.st36{fill:#D24E5C;}
	.st37{fill:#6A5C52;}
	.st38{fill:#6CA6BE;}
	.st39{fill:#B8C136;}
	.st40{fill-rule:evenodd;clip-rule:evenodd;fill:#FAE6CA;}
</style>
<g id="Layer_2" class="st0">
	<g class="st1">
		<g>
			<line class="st2" x1="0" y1="4.829" x2="256" y2="4.829"/>
			<line class="st2" x1="0" y1="16.56" x2="256" y2="16.56"/>
			<line class="st2" x1="0" y1="28.29" x2="256" y2="28.29"/>
			<line class="st2" x1="0" y1="40.021" x2="256" y2="40.021"/>
			<line class="st2" x1="0" y1="51.751" x2="256" y2="51.751"/>
			<line class="st2" x1="0" y1="63.482" x2="256" y2="63.482"/>
			<line class="st2" x1="0" y1="75.213" x2="256" y2="75.213"/>
			<line class="st2" x1="0" y1="86.943" x2="256" y2="86.943"/>
			<line class="st2" x1="0" y1="98.674" x2="256" y2="98.674"/>
			<line class="st2" x1="0" y1="110.404" x2="256" y2="110.404"/>
			<line class="st2" x1="0" y1="122.135" x2="256" y2="122.135"/>
			<line class="st2" x1="0" y1="133.865" x2="256" y2="133.865"/>
			<line class="st2" x1="0" y1="145.596" x2="256" y2="145.596"/>
			<line class="st2" x1="0" y1="157.326" x2="256" y2="157.326"/>
			<line class="st2" x1="0" y1="169.057" x2="256" y2="169.057"/>
			<line class="st2" x1="0" y1="180.788" x2="256" y2="180.788"/>
			<line class="st2" x1="0" y1="192.518" x2="256" y2="192.518"/>
			<line class="st2" x1="0" y1="204.249" x2="256" y2="204.249"/>
			<line class="st2" x1="0" y1="215.979" x2="256" y2="215.979"/>
			<line class="st2" x1="0" y1="227.71" x2="256" y2="227.71"/>
			<line class="st2" x1="0" y1="239.44" x2="256" y2="239.44"/>
			<line class="st2" x1="0" y1="251.171" x2="256" y2="251.171"/>
		</g>
		<g>
			<line class="st2" x1="251.171" y1="0" x2="251.171" y2="256"/>
			<line class="st2" x1="239.44" y1="0" x2="239.44" y2="256"/>
			<line class="st2" x1="227.71" y1="0" x2="227.71" y2="256"/>
			<line class="st2" x1="215.979" y1="0" x2="215.979" y2="256"/>
			<line class="st2" x1="204.249" y1="0" x2="204.249" y2="256"/>
			<line class="st2" x1="192.518" y1="0" x2="192.518" y2="256"/>
			<line class="st2" x1="180.788" y1="0" x2="180.788" y2="256"/>
			<line class="st2" x1="169.057" y1="0" x2="169.057" y2="256"/>
			<line class="st2" x1="157.326" y1="0" x2="157.326" y2="256"/>
			<line class="st2" x1="145.596" y1="0" x2="145.596" y2="256"/>
			<line class="st2" x1="133.865" y1="0" x2="133.865" y2="256"/>
			<line class="st2" x1="122.135" y1="0" x2="122.135" y2="256"/>
			<line class="st2" x1="110.404" y1="0" x2="110.404" y2="256"/>
			<line class="st2" x1="98.674" y1="0" x2="98.674" y2="256"/>
			<line class="st2" x1="86.943" y1="0" x2="86.943" y2="256"/>
			<line class="st2" x1="75.213" y1="0" x2="75.213" y2="256"/>
			<line class="st2" x1="63.482" y1="0" x2="63.482" y2="256"/>
			<line class="st2" x1="51.751" y1="0" x2="51.751" y2="256"/>
			<line class="st2" x1="40.021" y1="0" x2="40.021" y2="256"/>
			<line class="st2" x1="28.29" y1="0" x2="28.29" y2="256"/>
			<line class="st2" x1="16.56" y1="0" x2="16.56" y2="256"/>
			<line class="st2" x1="4.829" y1="0" x2="4.829" y2="256"/>
		</g>
	</g>
</g>
<g id="Layer_1">
	<g>
		<path class="st4" d="M222.395,180.635H33.605c-9.447,0-17.105-7.658-17.105-17.105V33.241c0-9.447,7.658-17.106,17.105-17.106
			h188.789c9.447,0,17.105,7.659,17.105,17.106V163.53C239.5,172.977,231.842,180.635,222.395,180.635z"/>
		<path class="st3" d="M222.395,182.136H33.605C23.347,182.136,15,173.789,15,163.53V33.241c0-10.259,8.347-18.605,18.605-18.605
			h188.789c10.259,0,18.605,8.347,18.605,18.605V163.53C241,173.789,232.653,182.136,222.395,182.136z M33.605,17.636
			C25.001,17.636,18,24.637,18,33.241V163.53c0,8.604,7.001,15.605,15.605,15.605h188.789c8.604,0,15.605-7.001,15.605-15.605
			V33.241c0-8.604-7.001-15.605-15.605-15.605H33.605z"/>
		<path class="st14" d="M86.201,28.635h-45.17c-6.583,0-11.92,5.337-11.92,11.92v115.66c0,6.583,5.337,11.92,11.92,11.92h173.938
			c6.583,0,11.92-5.337,11.92-11.92V40.555c0-6.583-5.337-11.92-11.92-11.92H99.799H86.201z"/>
		<path class="st3" d="M214.969,169.636H41.031c-7.399,0-13.42-6.02-13.42-13.42V40.556c0-7.399,6.021-13.42,13.42-13.42h45.17
			c0.828,0,1.5,0.672,1.5,1.5c0,0.828-0.672,1.5-1.5,1.5h-45.17c-5.745,0-10.42,4.675-10.42,10.42v115.66
			c0,5.745,4.675,10.42,10.42,10.42h173.938c5.745,0,10.42-4.675,10.42-10.42V40.556c0-5.745-4.675-10.42-10.42-10.42H99.799
			c-0.828,0-1.5-0.672-1.5-1.5c0-0.828,0.672-1.5,1.5-1.5h115.17c7.399,0,13.42,6.021,13.42,13.42v115.66
			C228.389,163.615,222.368,169.636,214.969,169.636z"/>
		<path class="st9" d="M75.4,87.508v56.583c0,2.49-2.018,4.508-4.508,4.508H50.508c-2.49,0-4.508-2.018-4.508-4.508V87.508
			C46,85.018,48.018,83,50.508,83h20.383C73.382,83,75.4,85.018,75.4,87.508z"/>
		<path class="st3" d="M70.892,150.101H50.508c-3.312,0-6.008-2.695-6.008-6.009V87.508c0-3.312,2.695-6.008,6.008-6.008h20.384
			c3.313,0,6.009,2.695,6.009,6.008v56.584C76.9,147.405,74.205,150.101,70.892,150.101z M50.508,84.5
			c-1.658,0-3.008,1.35-3.008,3.008v56.584c0,1.659,1.35,3.009,3.008,3.009h20.384c1.659,0,3.009-1.35,3.009-3.009V87.508
			c0-1.658-1.35-3.008-3.009-3.008H50.508z"/>
		<path class="st19" d="M142,87.508v56.583c0,2.49-2.018,4.508-4.508,4.508H91.108c-2.49,0-4.508-2.018-4.508-4.508V87.508
			c0-2.49,2.018-4.508,4.508-4.508h46.383C139.982,83,142,85.018,142,87.508z"/>
		<path class="st3" d="M137.492,150.101H91.108c-3.313,0-6.009-2.695-6.009-6.009V87.508c0-3.312,2.695-6.008,6.009-6.008h46.384
			c3.312,0,6.008,2.695,6.008,6.008v56.584C143.5,147.405,140.805,150.101,137.492,150.101z M91.108,84.5
			c-1.659,0-3.009,1.35-3.009,3.008v56.584c0,1.659,1.35,3.009,3.009,3.009h46.384c1.658,0,3.008-1.35,3.008-3.009V87.508
			c0-1.658-1.35-3.008-3.008-3.008H91.108z"/>
		<path class="st8" d="M137.492,48.175H50.508c-2.49,0-4.508,2.018-4.508,4.508v14.129c0,2.49,2.018,4.508,4.508,4.508h86.983
			c2.49,0,4.508-2.018,4.508-4.508V52.684C142,50.194,139.982,48.175,137.492,48.175z"/>
		<path class="st3" d="M137.492,72.821H50.508c-3.312,0-6.008-2.695-6.008-6.008v-14.13c0-3.312,2.695-6.008,6.008-6.008h86.984
			c3.312,0,6.008,2.695,6.008,6.008v14.13C143.5,70.126,140.805,72.821,137.492,72.821z M50.508,49.676
			c-1.658,0-3.008,1.35-3.008,3.008v14.13c0,1.658,1.35,3.008,3.008,3.008h86.984c1.658,0,3.008-1.35,3.008-3.008v-14.13
			c0-1.658-1.35-3.008-3.008-3.008H50.508z"/>
		<rect x="113.688" y="180.635" class="st4" width="28.625" height="35.593"/>
		<path class="st3" d="M142.312,217.729h-28.625c-0.828,0-1.5-0.672-1.5-1.5v-35.593c0-0.828,0.672-1.5,1.5-1.5h28.625
			c0.828,0,1.5,0.672,1.5,1.5v35.593C143.812,217.057,143.141,217.729,142.312,217.729z M115.188,214.729h25.625v-32.593h-25.625
			V214.729z"/>
		<path class="st4" d="M135.452,239.635h36.252c0-12.927-10.479-23.407-23.407-23.407h-40.593c-12.927,0-23.407,10.48-23.407,23.407
			h37.584H135.452z"/>
		<path class="st3" d="M171.703,241.136h-36.252c-0.828,0-1.5-0.672-1.5-1.5c0-0.828,0.672-1.5,1.5-1.5h34.701
			c-0.773-11.383-10.28-20.407-21.855-20.407h-40.594c-11.575,0-21.082,9.024-21.855,20.407h36.033c0.828,0,1.5,0.672,1.5,1.5
			c0,0.828-0.672,1.5-1.5,1.5H84.297c-0.828,0-1.5-0.672-1.5-1.5c0-13.734,11.173-24.907,24.906-24.907h40.594
			c13.733,0,24.906,11.173,24.906,24.907C173.203,240.464,172.531,241.136,171.703,241.136z"/>
		<path class="st14" d="M47.671,203.469c0,0,3.408,12.659,13.222,13.247c0,0-13.1,4.525-13.321,14.202
			c0,0-2.579-13.572-12.925-14.059C34.647,216.859,46.697,215.033,47.671,203.469z"/>
		<path class="st3" d="M47.571,232.417c-0.713,0-1.335-0.506-1.473-1.217c-0.023-0.125-2.494-12.418-11.522-12.844
			c-0.771-0.036-1.388-0.65-1.428-1.421c-0.04-0.77,0.511-1.444,1.274-1.561c0.441-0.068,10.894-1.816,11.754-12.031
			c0.062-0.726,0.635-1.301,1.359-1.367c0.735-0.056,1.393,0.4,1.584,1.102c0.031,0.116,3.259,11.626,11.863,12.141
			c0.714,0.042,1.297,0.583,1.396,1.292c0.098,0.708-0.318,1.388-0.994,1.622c-0.121,0.042-12.118,4.311-12.312,12.819
			c-0.018,0.767-0.61,1.396-1.375,1.46C47.655,232.415,47.613,232.417,47.571,232.417z M39.83,216.688
			c3.878,1.969,6.23,5.746,7.587,8.877c2.026-4.021,5.941-6.787,8.948-8.427c-4.134-1.843-6.783-5.651-8.334-8.723
			C46.238,212.774,42.761,215.283,39.83,216.688z"/>
		<path class="st14" d="M25.972,220.45c0,0,2.411,8.954,9.352,9.369c0,0-9.266,3.201-9.422,10.046c0,0-1.824-9.6-9.142-9.944
			C16.76,229.921,25.284,228.629,25.972,220.45z"/>
		<path class="st3" d="M25.901,241.364c-0.714,0-1.337-0.507-1.473-1.22c-0.016-0.082-1.704-8.441-7.739-8.726
			c-0.771-0.036-1.388-0.65-1.428-1.421c-0.04-0.77,0.511-1.444,1.274-1.561c0.296-0.047,7.364-1.243,7.942-8.113
			c0.062-0.726,0.636-1.303,1.361-1.368c0.724-0.058,1.392,0.4,1.582,1.102l0,0c0.021,0.079,2.227,7.92,7.993,8.265
			c0.714,0.042,1.299,0.584,1.396,1.293c0.097,0.709-0.32,1.388-0.996,1.622c-0.081,0.028-8.282,2.953-8.412,8.661
			c-0.017,0.768-0.611,1.397-1.376,1.461C25.984,241.362,25.942,241.364,25.901,241.364z M21.383,229.837
			c2.107,1.333,3.523,3.395,4.446,5.28c1.376-2.232,3.515-3.872,5.365-4.973c-2.287-1.268-3.885-3.35-4.941-5.224
			C25.079,227.207,23.238,228.796,21.383,229.837z"/>
		<path class="st14" d="M25.972,193.792c0,0,2.411,8.954,9.352,9.37c0,0-9.266,3.201-9.422,10.046c0,0-1.824-9.6-9.142-9.944
			C16.76,203.263,25.284,201.972,25.972,193.792z"/>
		<path class="st3" d="M25.901,214.707c-0.714,0-1.337-0.507-1.473-1.22c-0.016-0.082-1.704-8.442-7.739-8.727
			c-0.771-0.036-1.388-0.65-1.428-1.421c-0.04-0.77,0.511-1.444,1.274-1.561c0.296-0.047,7.364-1.242,7.942-8.113
			c0.062-0.726,0.636-1.303,1.361-1.368c0.724-0.056,1.392,0.4,1.582,1.102l0,0c0.021,0.079,2.227,7.921,7.993,8.266
			c0.714,0.042,1.299,0.584,1.396,1.293c0.097,0.709-0.32,1.389-0.997,1.622c-0.08,0.028-8.281,2.952-8.411,8.661
			c-0.017,0.768-0.611,1.398-1.376,1.461C25.984,214.705,25.942,214.707,25.901,214.707z M21.382,203.18
			c2.108,1.333,3.524,3.395,4.447,5.279c1.376-2.232,3.515-3.871,5.364-4.972c-2.286-1.27-3.884-3.35-4.941-5.224
			C25.079,200.55,23.237,202.139,21.382,203.18z"/>
		<path class="st17" d="M214.97,30.135h-15c5.74,0,10.42,4.67,10.42,10.42v115.66c0,5.75-4.68,10.42-10.42,10.42h15
			c5.74,0,10.42-4.67,10.42-10.42V40.555C225.39,34.805,220.71,30.135,214.97,30.135z"/>
		<path class="st3" d="M207.204,55.5H155c-0.828,0-1.5-0.672-1.5-1.5s0.672-1.5,1.5-1.5h52.204c0.828,0,1.5,0.672,1.5,1.5
			S208.032,55.5,207.204,55.5z"/>
		<path class="st3" d="M207.204,73.5H155c-0.828,0-1.5-0.672-1.5-1.5s0.672-1.5,1.5-1.5h52.204c0.828,0,1.5,0.672,1.5,1.5
			S208.032,73.5,207.204,73.5z"/>
		<path class="st3" d="M207.204,91.5H155c-0.828,0-1.5-0.672-1.5-1.5s0.672-1.5,1.5-1.5h52.204c0.828,0,1.5,0.672,1.5,1.5
			S208.032,91.5,207.204,91.5z"/>
		<path class="st3" d="M207.204,109.5H155c-0.828,0-1.5-0.672-1.5-1.5s0.672-1.5,1.5-1.5h52.204c0.828,0,1.5,0.672,1.5,1.5
			S208.032,109.5,207.204,109.5z"/>
		<path class="st3" d="M207.204,127.5H155c-0.828,0-1.5-0.672-1.5-1.5s0.672-1.5,1.5-1.5h52.204c0.828,0,1.5,0.672,1.5,1.5
			S208.032,127.5,207.204,127.5z"/>
		<path class="st3" d="M207.204,145.5H155c-0.828,0-1.5-0.672-1.5-1.5s0.672-1.5,1.5-1.5h52.204c0.828,0,1.5,0.672,1.5,1.5
			S208.032,145.5,207.204,145.5z"/>
	</g>
</g>
</svg>
